<svg version="1.1" id="Layer_1" xmlns="http://www.w3.org/2000/svg" xmlns:xlink="http://www.w3.org/1999/xlink" x="0px" y="0px"
	 width="100%" viewBox="0 0 512 512" enable-background="new 0 0 512 512" xml:space="preserve">
<path fill="#000000" opacity="1.000000" stroke="none" 
	d="
M225.000000,513.000000 
	C150.367172,513.000000 75.734352,513.000000 1.050762,513.000000 
	C1.050762,342.444550 1.050762,171.889053 1.050762,1.000000 
	C76.021103,1.000000 151.042709,1.000000 226.616150,1.356219 
	C227.245728,3.780984 226.627838,6.251213 227.543045,7.836179 
	C229.577301,11.359145 228.242767,13.029749 225.172913,14.335439 
	C223.047577,15.239403 220.912598,16.133911 218.735367,16.900375 
	C208.134369,20.632288 197.513794,24.312006 188.660706,32.075886 
	C187.872803,32.364708 187.399063,32.659176 186.956665,32.968094 
	C186.987991,32.982540 186.967682,32.916588 186.572525,32.952957 
	C165.733551,38.877476 146.396622,47.335129 128.568909,58.921211 
	C119.048698,65.108307 110.124687,72.212799 100.585281,78.958244 
	C96.382996,82.293587 92.229347,85.286865 88.732338,88.913345 
	C81.178642,96.746696 73.287598,104.397141 66.769470,113.052399 
	C57.609192,125.216103 48.914932,137.840057 41.216629,150.968079 
	C31.349094,167.795288 24.572861,186.091599 19.572065,204.962387 
	C15.341408,220.927032 12.125566,237.158859 12.157659,253.701721 
	C12.189348,270.037109 12.809052,286.417603 14.225706,302.686462 
	C15.057729,312.241425 17.946676,321.617279 19.946009,331.472473 
	C24.908113,351.611725 32.868382,370.125488 42.845924,388.228088 
	C58.489197,415.255615 77.324127,439.085724 102.031998,458.376923 
	C122.815453,475.594574 145.748169,488.572510 170.683960,497.908905 
	C179.244965,501.114288 188.215271,503.226562 197.358139,506.022766 
	C205.862381,507.805023 214.017502,509.353210 222.138916,511.061707 
	C223.182358,511.281219 224.050598,512.333496 225.000000,513.000000 
z"/>
<path fill="#000000" opacity="1.000000" stroke="none" 
	d="
M273.000000,0.999996 
	C352.964325,1.000000 432.928619,1.000000 512.946472,1.000000 
	C512.946472,171.554810 512.946472,342.109650 512.946472,513.000000 
	C438.312225,513.000000 363.623962,513.000000 288.127563,512.668335 
	C288.152313,511.893707 288.938141,511.230621 289.825134,511.041046 
	C302.446472,508.343292 315.181458,506.107971 327.690247,502.969025 
	C347.420441,498.017883 365.630249,489.175751 383.009430,478.858948 
	C392.810486,473.040741 401.728638,465.735199 411.359741,458.966125 
	C412.260742,458.246704 412.785919,457.580444 413.441071,457.086548 
	C428.647614,445.622070 441.167175,431.478058 452.654877,416.500580 
	C459.705414,407.308258 465.482697,397.139374 471.941772,387.041321 
	C474.010406,382.908142 476.366913,379.292969 477.856689,375.350281 
	C483.400360,360.679291 488.659241,345.900665 494.371399,330.952301 
	C497.135101,316.294769 500.804626,301.924133 501.695465,287.383209 
	C503.290436,261.349609 502.323822,235.243866 495.823059,209.758713 
	C488.788666,182.181625 477.832367,156.175949 461.835114,132.579834 
	C454.430481,121.657990 446.288086,111.113838 437.460876,101.316856 
	C430.100403,93.147713 421.252777,86.318527 412.929321,78.587204 
	C411.860229,77.335823 411.025848,76.259758 409.975922,75.470398 
	C393.941162,63.415367 377.101166,52.634388 358.757507,44.438721 
	C351.388123,41.146202 343.620819,38.744350 335.920471,35.620750 
	C334.214569,33.420444 332.800629,31.344110 331.003204,29.682703 
	C315.241821,15.113988 296.599945,6.489291 275.505768,2.925885 
	C274.588287,2.770895 273.831604,1.663655 273.000000,0.999996 
z"/>
<path fill="#FFC839" opacity="1.000000" stroke="none" 
	d="
M411.044495,459.099609 
	C401.728638,465.735199 392.810486,473.040741 383.009430,478.858948 
	C365.630249,489.175751 347.420441,498.017883 327.690247,502.969025 
	C315.181458,506.107971 302.446472,508.343292 289.825134,511.041046 
	C288.938141,511.230621 288.152313,511.893707 287.659729,512.668335 
	C267.312439,513.000000 246.624878,513.000000 225.468658,513.000000 
	C224.050598,512.333496 223.182358,511.281219 222.138916,511.061707 
	C214.017502,509.353210 205.862381,507.805023 197.286133,505.675201 
	C195.236755,499.482513 192.974625,493.915039 192.140259,488.141235 
	C190.584900,477.378082 195.089951,468.153412 201.416321,459.486542 
	C208.388458,458.202240 210.339249,455.942719 210.406876,448.981384 
	C210.588577,430.279510 210.700134,411.576935 211.317413,392.904694 
	C223.167679,392.936157 234.540039,392.937561 246.385773,392.967346 
	C253.933380,392.980072 261.007629,392.964386 268.544891,392.972931 
	C280.324432,393.004395 291.640991,393.011627 303.025024,393.482300 
	C303.108124,411.763824 303.112457,429.581940 303.156311,447.399963 
	C303.160797,449.219360 303.120361,451.114532 303.588654,452.842316 
	C304.787720,457.266235 307.827484,459.483368 312.456818,459.233398 
	C316.717834,459.003326 319.721069,455.982056 320.109497,451.490295 
	C320.295471,449.339874 320.203949,447.164398 320.215576,445.000153 
	C320.319092,425.689392 320.417572,406.378632 320.864197,387.066223 
	C330.791168,381.698517 340.371460,376.332458 350.246460,371.136414 
	C364.376251,381.404266 377.565460,392.152954 388.854736,405.212128 
	C402.325439,420.794678 411.699585,437.817657 411.044495,459.099609 
z"/>
<path fill="#763616" opacity="1.000000" stroke="none" 
	d="
M188.974884,32.081532 
	C197.513794,24.312006 208.134369,20.632288 218.735367,16.900375 
	C220.912598,16.133911 223.047577,15.239403 225.172913,14.335439 
	C228.242767,13.029749 229.577301,11.359145 227.543045,7.836179 
	C226.627838,6.251213 227.245728,3.780984 227.084000,1.356219 
	C237.020889,1.000000 247.041794,1.000000 257.700958,1.285730 
	C262.098694,6.198860 266.585785,10.416614 269.468842,15.537442 
	C275.812012,26.804165 275.491852,32.857193 266.563995,41.208092 
	C262.322510,45.175484 258.312256,50.119999 256.205566,55.420135 
	C254.356995,60.070843 255.312622,65.836151 254.799973,71.197090 
	C254.570282,71.285034 254.108047,71.453773 253.697662,71.354149 
	C250.641708,71.501778 247.996933,71.758034 245.350403,71.994751 
	C232.853409,73.112526 220.651291,75.410965 209.199066,80.827682 
	C191.119263,89.379135 181.553986,103.055801 182.804794,123.624390 
	C183.051285,127.677940 182.629898,132.039459 181.337631,135.860229 
	C179.067902,142.571060 175.887405,148.973831 172.704224,155.311905 
	C168.559052,154.703735 164.798050,154.289291 160.943497,153.496185 
	C156.521301,133.478699 155.481934,113.612045 158.265793,93.749573 
	C161.321564,71.947105 168.928650,51.990334 185.061295,36.120018 
	C185.918076,35.277172 186.342163,33.994503 186.967682,32.916588 
	C186.967682,32.916588 186.987991,32.982540 187.249023,33.092918 
	C187.998322,32.829372 188.486603,32.455452 188.974884,32.081532 
z"/>
<path fill="#945230" opacity="1.000000" stroke="none" 
	d="
M255.029663,71.109146 
	C255.312622,65.836151 254.356995,60.070843 256.205566,55.420135 
	C258.312256,50.119999 262.322510,45.175484 266.563995,41.208092 
	C275.491852,32.857193 275.812012,26.804165 269.468842,15.537442 
	C266.585785,10.416614 262.098694,6.198860 258.169617,1.285730 
	C262.689240,1.000000 267.378510,1.000000 272.533875,0.999996 
	C273.831604,1.663655 274.588287,2.770895 275.505768,2.925885 
	C296.599945,6.489291 315.241821,15.113988 331.003204,29.682703 
	C332.800629,31.344110 334.214569,33.420444 336.052612,35.931332 
	C352.600464,57.006283 359.483490,80.745865 358.762451,106.410622 
	C358.316315,122.289963 355.518463,138.103226 353.342407,153.948669 
	C348.880981,154.493088 344.853394,155.034988 340.586853,155.264343 
	C339.156372,151.320587 338.643738,147.251953 336.640930,144.143478 
	C331.465424,136.110916 330.651642,127.547134 331.138489,118.316582 
	C331.858459,104.667557 326.266937,93.394249 315.168793,85.682434 
	C309.137390,81.491402 302.116669,77.723106 295.028564,76.270531 
	C281.894623,73.578979 268.383636,72.727142 255.029663,71.109146 
z"/>
<path fill="#FF7186" opacity="1.000000" stroke="none" 
	d="
M19.910429,331.073700 
	C17.946676,321.617279 15.057729,312.241425 14.225706,302.686462 
	C12.809052,286.417603 12.189348,270.037109 12.157659,253.701721 
	C12.125566,237.158859 15.341408,220.927032 19.572065,204.962387 
	C24.572861,186.091599 31.349094,167.795288 41.216629,150.968079 
	C48.914932,137.840057 57.609192,125.216103 66.769470,113.052399 
	C73.287598,104.397141 81.178642,96.746696 88.732338,88.913345 
	C92.229347,85.286865 96.382996,82.293587 100.901688,79.100189 
	C103.474724,80.516670 105.503540,81.705368 107.276794,83.197731 
	C123.152893,96.559059 131.314270,113.187347 128.177185,134.263458 
	C125.909889,149.496094 125.186020,164.732117 127.321266,179.996872 
	C129.462021,195.300980 132.199402,210.524490 134.179733,225.847366 
	C135.960602,239.626709 131.890457,251.810349 122.457932,262.109955 
	C111.498138,274.077240 97.125870,280.713287 83.015327,287.965607 
	C69.871651,294.721008 56.866402,301.937073 44.602066,310.148041 
	C35.694309,316.111725 28.093803,324.028015 19.910429,331.073700 
z"/>
<path fill="#FF4155" opacity="1.000000" stroke="none" 
	d="
M19.946016,331.472473 
	C28.093803,324.028015 35.694309,316.111725 44.602066,310.148041 
	C56.866402,301.937073 69.871651,294.721008 83.015327,287.965607 
	C97.125870,280.713287 111.498138,274.077240 122.457932,262.109955 
	C131.890457,251.810349 135.960602,239.626709 134.179733,225.847366 
	C132.199402,210.524490 129.462021,195.300980 127.321266,179.996872 
	C125.186020,164.732117 125.909889,149.496094 128.177185,134.263458 
	C131.314270,113.187347 123.152893,96.559059 107.276794,83.197731 
	C105.503540,81.705368 103.474724,80.516670 101.248016,79.045197 
	C110.124687,72.212799 119.048698,65.108307 128.568909,58.921211 
	C146.396622,47.335129 165.733551,38.877476 186.572525,32.952957 
	C186.342163,33.994503 185.918076,35.277172 185.061295,36.120018 
	C168.928650,51.990334 161.321564,71.947105 158.265793,93.749573 
	C155.481934,113.612045 156.521301,133.478699 160.639679,153.663300 
	C154.208527,158.038834 151.705597,163.198868 153.631729,170.156967 
	C156.007858,178.740707 159.266998,187.080841 161.619476,195.670044 
	C164.183548,205.031845 168.199524,208.655792 177.933182,209.523697 
	C178.032318,211.310608 178.108826,212.685150 178.188599,214.489014 
	C178.311707,216.571228 178.356567,218.233597 178.563126,219.875610 
	C180.389267,234.391373 185.250839,247.920578 191.587494,260.948090 
	C179.853928,266.425476 168.188995,271.277985 157.189133,277.337738 
	C147.311356,282.779388 141.677811,291.921844 138.841507,302.926636 
	C136.249176,312.984650 136.907135,322.989105 137.775421,333.154663 
	C119.108055,339.834290 100.788963,346.389343 82.501900,353.032562 
	C64.718521,359.492798 51.028069,370.682220 42.640125,387.906769 
	C32.868382,370.125488 24.908113,351.611725 19.946016,331.472473 
z"/>
<path fill="#FFB332" opacity="1.000000" stroke="none" 
	d="
M201.071945,459.556641 
	C195.089951,468.153412 190.584900,477.378082 192.140259,488.141235 
	C192.974625,493.915039 195.236755,499.482513 196.926590,505.490662 
	C188.215271,503.226562 179.244965,501.114288 170.683960,497.908905 
	C145.748169,488.572510 122.815453,475.594574 102.284172,458.059875 
	C103.130508,452.195007 103.393120,446.846527 104.673904,441.754150 
	C109.960442,420.735016 123.575256,405.178955 139.050095,391.061615 
	C146.740082,384.046234 154.995972,377.651093 163.293060,370.949371 
	C163.786972,370.894043 163.983658,370.864746 164.473877,371.003204 
	C174.161362,376.479248 183.555344,381.787506 193.052429,387.546753 
	C193.209106,408.143372 193.240646,428.289154 193.328598,448.434662 
	C193.358139,455.202209 194.904709,457.325684 201.071945,459.556641 
z"/>
<path fill="#FFC839" opacity="1.000000" stroke="none" 
	d="
M162.995850,370.975372 
	C154.995972,377.651093 146.740082,384.046234 139.050095,391.061615 
	C123.575256,405.178955 109.960442,420.735016 104.673904,441.754150 
	C103.393120,446.846527 103.130508,452.195007 102.147522,457.742798 
	C77.324127,439.085724 58.489197,415.255615 42.845924,388.228088 
	C51.028069,370.682220 64.718521,359.492798 82.501900,353.032562 
	C100.788963,346.389343 119.108055,339.834290 137.986465,333.427917 
	C142.615692,346.715027 149.206497,358.209778 159.718185,367.262512 
	C160.957458,368.329742 161.910248,369.729675 162.995850,370.975372 
z"/>
<path fill="#FF4155" opacity="1.000000" stroke="none" 
	d="
M188.660706,32.075886 
	C188.486603,32.455452 187.998322,32.829372 187.217682,33.078468 
	C187.399063,32.659176 187.872803,32.364708 188.660706,32.075886 
z"/>
<path fill="#FF7186" opacity="1.000000" stroke="none" 
	d="
M413.063782,78.895874 
	C421.252777,86.318527 430.100403,93.147713 437.460876,101.316856 
	C446.288086,111.113838 454.430481,121.657990 461.835114,132.579834 
	C477.832367,156.175949 488.788666,182.181625 495.823059,209.758713 
	C502.323822,235.243866 503.290436,261.349609 501.695465,287.383209 
	C500.804626,301.924133 497.135101,316.294769 494.084015,330.771423 
	C474.485870,311.073578 451.894440,296.790009 426.964813,285.798004 
	C419.245972,282.394623 411.853607,278.042725 404.797058,273.389252 
	C390.753387,264.128052 380.107727,252.040771 379.790314,234.279266 
	C379.608459,224.102859 380.896301,213.756912 382.757324,203.716171 
	C387.018890,180.724091 389.694061,157.826004 385.890472,134.445679 
	C382.240875,112.011658 393.243988,90.158760 413.063782,78.895874 
z"/>
<path fill="#FF4155" opacity="1.000000" stroke="none" 
	d="
M412.929321,78.587204 
	C393.243988,90.158760 382.240875,112.011658 385.890472,134.445679 
	C389.694061,157.826004 387.018890,180.724091 382.757324,203.716171 
	C380.896301,213.756912 379.608459,224.102859 379.790314,234.279266 
	C380.107727,252.040771 390.753387,264.128052 404.797058,273.389252 
	C411.853607,278.042725 419.245972,282.394623 426.964813,285.798004 
	C451.894440,296.790009 474.485870,311.073578 493.737671,330.981567 
	C488.659241,345.900665 483.400360,360.679291 477.856689,375.350281 
	C476.366913,379.292969 474.010406,382.908142 471.670471,386.805695 
	C462.341370,370.928833 449.498779,359.449219 432.125641,353.221771 
	C413.354553,346.493164 394.589691,339.747223 375.805206,332.571289 
	C376.190094,326.495636 377.143433,320.832581 376.889832,315.224091 
	C376.139923,298.640533 370.252991,284.385529 355.035522,276.107483 
	C344.406586,270.325500 333.050446,265.880310 322.092834,260.504517 
	C329.853821,245.688919 335.098297,230.487946 335.787415,213.538193 
	C335.909454,211.793991 336.014587,210.453110 336.528137,209.068665 
	C344.025238,209.408112 348.837769,205.947510 351.123169,199.561508 
	C354.408356,190.381760 357.232422,181.031174 360.055573,171.693710 
	C362.277100,164.346024 360.303986,158.292877 353.776306,153.946152 
	C355.518463,138.103226 358.316315,122.289963 358.762451,106.410622 
	C359.483490,80.745865 352.600464,57.006283 336.166779,36.247704 
	C343.620819,38.744350 351.388123,41.146202 358.757507,44.438721 
	C377.101166,52.634388 393.941162,63.415367 409.975922,75.470398 
	C411.025848,76.259758 411.860229,77.335823 412.929321,78.587204 
z"/>
<path fill="#FFDD40" opacity="1.000000" stroke="none" 
	d="
M375.822113,333.008850 
	C394.589691,339.747223 413.354553,346.493164 432.125641,353.221771 
	C449.498779,359.449219 462.341370,370.928833 471.560455,387.173340 
	C465.482697,397.139374 459.705414,407.308258 452.654877,416.500580 
	C441.167175,431.478058 428.647614,445.622070 413.441071,457.086548 
	C412.785919,457.580444 412.260742,458.246704 411.359741,458.966125 
	C411.699585,437.817657 402.325439,420.794678 388.854736,405.212128 
	C377.565460,392.152954 364.376251,381.404266 350.435608,370.861572 
	C359.596405,363.185364 367.106842,354.540283 371.719330,343.609375 
	C373.191711,340.120056 374.460297,336.544800 375.822113,333.008850 
z"/>
<path fill="#FEE67F" opacity="1.000000" stroke="none" 
	d="
M375.805206,332.571289 
	C374.460297,336.544800 373.191711,340.120056 371.719330,343.609375 
	C367.106842,354.540283 359.596405,363.185364 350.140869,370.691528 
	C340.371460,376.332458 330.791168,381.698517 320.759613,386.624451 
	C320.256592,384.863525 320.191193,383.543121 320.155426,382.221893 
	C319.998199,376.416840 316.725250,372.396210 312.033020,372.256500 
	C307.002533,372.106689 303.355957,376.088928 303.129608,382.112885 
	C302.993073,385.745239 303.009705,389.383331 302.957520,393.018860 
	C291.640991,393.011627 280.324432,393.004395 268.753967,392.729034 
	C281.622040,382.690674 292.270386,370.850189 299.215179,355.885254 
	C310.658417,331.226746 312.157776,305.446899 308.102997,278.712708 
	C312.844574,272.553375 317.431854,266.695679 322.019104,260.838013 
	C333.050446,265.880310 344.406586,270.325500 355.035522,276.107483 
	C370.252991,284.385529 376.139923,298.640533 376.889832,315.224091 
	C377.143433,320.832581 376.190094,326.495636 375.805206,332.571289 
z"/>
<path fill="#FFAA7B" opacity="1.000000" stroke="none" 
	d="
M307.948669,279.014404 
	C312.157776,305.446899 310.658417,331.226746 299.215179,355.885254 
	C292.270386,370.850189 281.622040,382.690674 268.290955,392.704803 
	C261.007629,392.964386 253.933380,392.980072 246.176208,392.725464 
	C238.626709,385.678741 231.760117,378.902283 225.211212,371.958405 
	C230.166183,367.625427 235.767548,364.138245 239.263626,359.169678 
	C250.656082,342.978973 255.063934,324.343628 256.550934,304.656433 
	C260.639709,303.994568 264.307098,303.478516 268.358368,302.961670 
	C269.384247,302.794373 270.042908,302.674866 270.665894,302.454529 
	C284.850189,297.437195 296.933655,289.074738 307.948669,279.014404 
z"/>
<path fill="#FDE680" opacity="1.000000" stroke="none" 
	d="
M224.893524,372.125824 
	C231.760117,378.902283 238.626709,385.678741 245.702850,392.697083 
	C234.540039,392.937561 223.167679,392.936157 211.270035,392.453430 
	C210.669205,388.175262 210.872498,384.347076 210.450211,380.589203 
	C209.871933,375.443024 206.034821,372.059875 201.632553,372.252258 
	C197.111389,372.449799 193.777023,375.961670 193.266388,381.166382 
	C193.073334,383.134277 193.050018,385.118805 192.949326,387.095764 
	C183.555344,381.787506 174.161362,376.479248 164.510590,370.642395 
	C164.810928,368.023621 165.258942,365.897034 165.943069,363.849304 
	C170.150620,351.254974 179.372345,343.362274 191.284515,343.154053 
	C197.531601,343.044830 203.803375,344.347748 210.276093,345.288513 
	C215.289948,354.417999 220.091736,363.271912 224.893524,372.125824 
z"/>
<path fill="#DFEDFA" opacity="1.000000" stroke="none" 
	d="
M193.052429,387.546753 
	C193.050018,385.118805 193.073334,383.134277 193.266388,381.166382 
	C193.777023,375.961670 197.111389,372.449799 201.632553,372.252258 
	C206.034821,372.059875 209.871933,375.443024 210.450211,380.589203 
	C210.872498,384.347076 210.669205,388.175262 210.792145,392.423370 
	C210.700134,411.576935 210.588577,430.279510 210.406876,448.981384 
	C210.339249,455.942719 208.388458,458.202240 201.416321,459.486542 
	C194.904709,457.325684 193.358139,455.202209 193.328598,448.434662 
	C193.240646,428.289154 193.209106,408.143372 193.052429,387.546753 
z"/>
<path fill="#DFEEFC" opacity="1.000000" stroke="none" 
	d="
M303.025024,393.482300 
	C303.009705,389.383331 302.993073,385.745239 303.129608,382.112885 
	C303.355957,376.088928 307.002533,372.106689 312.033020,372.256500 
	C316.725250,372.396210 319.998199,376.416840 320.155426,382.221893 
	C320.191193,383.543121 320.256592,384.863525 320.412964,386.626099 
	C320.417572,406.378632 320.319092,425.689392 320.215576,445.000153 
	C320.203949,447.164398 320.295471,449.339874 320.109497,451.490295 
	C319.721069,455.982056 316.717834,459.003326 312.456818,459.233398 
	C307.827484,459.483368 304.787720,457.266235 303.588654,452.842316 
	C303.120361,451.114532 303.160797,449.219360 303.156311,447.399963 
	C303.112457,429.581940 303.108124,411.763824 303.025024,393.482300 
z"/>
<path fill="#FFC7AB" opacity="1.000000" stroke="none" 
	d="
M336.119751,209.112213 
	C336.014587,210.453110 335.909454,211.793991 335.567444,213.781189 
	C330.516144,224.063156 323.745972,231.687057 313.585480,235.934021 
	C313.292297,235.407516 313.083588,235.136429 312.981384,234.829834 
	C312.666382,233.884766 312.399292,232.923874 312.100922,231.973099 
	C307.784302,218.218002 299.648438,208.336914 284.990051,204.863281 
	C280.313446,203.755051 275.639282,202.476089 271.148987,200.784332 
	C265.987152,198.839539 261.498322,198.829071 257.828491,203.921371 
	C254.767349,199.093643 250.834137,198.957855 246.250137,200.358978 
	C240.561432,202.097687 234.759583,203.466263 229.004852,204.533020 
	C227.826202,192.696014 227.146271,181.241379 225.346634,169.965439 
	C223.095490,155.860489 224.158539,142.607635 231.314499,129.945740 
	C233.024384,126.920258 233.508942,123.041672 233.912445,119.482368 
	C234.340744,115.704498 233.915222,111.837410 234.014740,108.013245 
	C234.298264,97.118935 237.763397,87.512268 245.683868,79.756004 
	C248.500702,76.997559 251.300491,74.221687 254.108047,71.453773 
	C254.108047,71.453773 254.570282,71.285034 254.799988,71.197090 
	C268.383636,72.727142 281.894623,73.578979 295.028564,76.270531 
	C302.116669,77.723106 309.137390,81.491402 315.168793,85.682434 
	C326.266937,93.394249 331.858459,104.667557 331.138489,118.316582 
	C330.651642,127.547134 331.465424,136.110916 336.640930,144.143478 
	C338.643738,147.251953 339.156372,151.320587 340.614014,155.686050 
	C340.694031,161.529617 340.774078,166.665390 340.269287,171.743027 
	C339.029541,184.213684 337.520477,196.657562 336.119751,209.112213 
z"/>
<path fill="#FFAA7B" opacity="1.000000" stroke="none" 
	d="
M253.697662,71.354149 
	C251.300491,74.221687 248.500702,76.997559 245.683868,79.756004 
	C237.763397,87.512268 234.298264,97.118935 234.014740,108.013245 
	C233.915222,111.837410 234.340744,115.704498 233.912445,119.482368 
	C233.508942,123.041672 233.024384,126.920258 231.314499,129.945740 
	C224.158539,142.607635 223.095490,155.860489 225.346634,169.965439 
	C227.146271,181.241379 227.826202,192.696014 228.836334,204.678986 
	C228.400436,205.431763 228.187775,205.635757 227.661255,205.942947 
	C212.478470,210.912766 206.112305,222.792862 202.388153,237.015869 
	C200.348480,236.062515 198.680664,235.365921 197.088959,234.525192 
	C188.387115,229.928925 182.826263,222.415695 178.185333,214.059708 
	C178.108826,212.685150 178.032318,211.310608 177.958344,209.067093 
	C177.789673,205.730927 177.672455,203.258591 177.438461,200.797348 
	C176.003128,185.698715 174.541336,170.602585 173.088364,155.505630 
	C175.887405,148.973831 179.067902,142.571060 181.337631,135.860229 
	C182.629898,132.039459 183.051285,127.677940 182.804794,123.624390 
	C181.553986,103.055801 191.119263,89.379135 209.199066,80.827682 
	C220.651291,75.410965 232.853409,73.112526 245.350403,71.994751 
	C247.996933,71.758034 250.641708,71.501778 253.697662,71.354149 
z"/>
<path fill="#FC9360" opacity="1.000000" stroke="none" 
	d="
M172.704224,155.311905 
	C174.541336,170.602585 176.003128,185.698715 177.438461,200.797348 
	C177.672455,203.258591 177.789673,205.730927 177.935699,208.654739 
	C168.199524,208.655792 164.183548,205.031845 161.619476,195.670044 
	C159.266998,187.080841 156.007858,178.740707 153.631729,170.156967 
	C151.705597,163.198868 154.208527,158.038834 160.733215,154.041962 
	C164.798050,154.289291 168.559052,154.703735 172.704224,155.311905 
z"/>
<path fill="#FFA97B" opacity="1.000000" stroke="none" 
	d="
M336.528137,209.068665 
	C337.520477,196.657562 339.029541,184.213684 340.269287,171.743027 
	C340.774078,166.665390 340.694031,161.529617 340.852966,155.998596 
	C344.853394,155.034988 348.880981,154.493088 353.342407,153.948669 
	C360.303986,158.292877 362.277100,164.346024 360.055573,171.693710 
	C357.232422,181.031174 354.408356,190.381760 351.123169,199.561508 
	C348.837769,205.947510 344.025238,209.408112 336.528137,209.068665 
z"/>
<path fill="#FFDC40" opacity="1.000000" stroke="none" 
	d="
M210.064011,345.012939 
	C203.803375,344.347748 197.531601,343.044830 191.284515,343.154053 
	C179.372345,343.362274 170.150620,351.254974 165.943069,363.849304 
	C165.258942,365.897034 164.810928,368.023621 164.217072,370.474609 
	C163.983658,370.864746 163.786972,370.894043 163.293060,370.949371 
	C161.910248,369.729675 160.957458,368.329742 159.718185,367.262512 
	C149.206497,358.209778 142.615692,346.715027 138.348755,333.341919 
	C136.907135,322.989105 136.249176,312.984650 138.841507,302.926636 
	C141.677811,291.921844 147.311356,282.779388 157.189133,277.337738 
	C168.188995,271.277985 179.853928,266.425476 191.852203,261.173889 
	C197.001282,267.241943 201.527481,273.183563 206.011017,279.533997 
	C205.312714,286.381409 204.410995,292.806305 204.050308,299.261444 
	C203.178284,314.867798 205.732529,330.067688 210.064011,345.012939 
z"/>
<path fill="#763717" opacity="1.000000" stroke="none" 
	d="
M206.053665,279.125183 
	C201.527481,273.183563 197.001282,267.241943 192.210358,261.074524 
	C185.250839,247.920578 180.389267,234.391373 178.563126,219.875610 
	C178.356567,218.233597 178.311707,216.571228 178.188599,214.489014 
	C182.826263,222.415695 188.387115,229.928925 197.088959,234.525192 
	C198.680664,235.365921 200.348480,236.062515 202.388153,237.015869 
	C206.112305,222.792862 212.478470,210.912766 227.659607,206.364990 
	C225.167679,216.271713 225.462952,225.205490 232.640839,232.964905 
	C227.548615,236.881180 222.664474,240.510208 218.032700,244.436920 
	C217.008881,245.304886 216.073059,247.507996 216.461853,248.618301 
	C219.930161,258.523010 236.441925,271.124176 248.009171,264.495636 
	C247.961029,266.082031 248.077408,267.271454 247.836426,268.383484 
	C245.477005,279.271973 248.823792,288.305359 257.047607,295.468201 
	C260.355957,298.349731 264.312836,300.486633 267.974518,302.962463 
	C264.307098,303.478516 260.639709,303.994568 256.116913,304.490295 
	C246.232437,304.077454 237.804382,301.503052 230.337967,296.516663 
	C222.062546,290.989990 214.133530,284.944672 206.053665,279.125183 
z"/>
<path fill="#955331" opacity="1.000000" stroke="none" 
	d="
M232.939789,232.784851 
	C225.462952,225.205490 225.167679,216.271713 228.029968,206.320679 
	C228.187775,205.635757 228.400436,205.431763 228.838104,205.140671 
	C234.759583,203.466263 240.561432,202.097687 246.250137,200.358978 
	C250.834137,198.957855 254.767349,199.093643 257.828491,203.921371 
	C261.498322,198.829071 265.987152,198.839539 271.148987,200.784332 
	C275.639282,202.476089 280.313446,203.755051 284.990051,204.863281 
	C299.648438,208.336914 307.784302,218.218002 312.100922,231.973099 
	C312.399292,232.923874 312.666382,233.884766 312.981384,234.829834 
	C313.083588,235.136429 313.292297,235.407516 313.585480,235.934021 
	C323.745972,231.687057 330.516144,224.063156 335.550537,214.184479 
	C335.098297,230.487946 329.853821,245.688919 322.092834,260.504517 
	C317.431854,266.695679 312.844574,272.553375 308.102997,278.712708 
	C296.933655,289.074738 284.850189,297.437195 270.665894,302.454529 
	C270.042908,302.674866 269.384247,302.794373 268.358368,302.961670 
	C264.312836,300.486633 260.355957,298.349731 257.047607,295.468201 
	C248.823792,288.305359 245.477005,279.271973 247.836426,268.383484 
	C248.077408,267.271454 247.961029,266.082031 248.054062,264.309631 
	C248.097656,263.690735 248.148148,263.311340 248.480820,263.204163 
	C250.578796,260.588379 252.290100,258.039337 254.128250,255.585312 
	C255.376236,253.919174 256.802185,252.386322 258.148590,250.793884 
	C259.322296,252.380554 260.980621,253.802414 261.585938,255.582397 
	C264.222412,263.334961 271.343750,267.823639 279.158295,265.721771 
	C287.771637,263.405029 294.246307,258.244171 297.963470,249.879532 
	C299.202423,247.091599 298.933685,245.045837 296.716370,242.769943 
	C289.624512,235.490692 281.142700,230.919342 271.223846,228.989304 
	C266.087067,227.989792 262.534149,225.065033 260.144501,220.532242 
	C259.505646,219.320450 258.812103,218.137466 257.622467,216.008545 
	C254.985428,225.081238 249.056259,228.594849 241.236618,229.941116 
	C238.699585,230.377869 236.332733,231.803131 233.651031,232.785339 
	C233.414032,232.794403 232.939789,232.784851 232.939789,232.784851 
z"/>
<path fill="#FC9460" opacity="1.000000" stroke="none" 
	d="
M206.011017,279.533997 
	C214.133530,284.944672 222.062546,290.989990 230.337967,296.516663 
	C237.804382,301.503052 246.232437,304.077454 255.695557,304.636139 
	C255.063934,324.343628 250.656082,342.978973 239.263626,359.169678 
	C235.767548,364.138245 230.166183,367.625427 225.211212,371.958405 
	C220.091736,363.271912 215.289948,354.417999 210.276093,345.288513 
	C205.732529,330.067688 203.178284,314.867798 204.050308,299.261444 
	C204.410995,292.806305 205.312714,286.381409 206.011017,279.533997 
z"/>
<path fill="#FEA97A" opacity="1.000000" stroke="none" 
	d="
M232.640839,232.964905 
	C232.939789,232.784851 233.414032,232.794403 233.815369,233.127853 
	C238.860504,243.411316 243.504333,253.361328 248.148148,263.311340 
	C248.148148,263.311340 248.097656,263.690735 248.052765,263.876770 
	C236.441925,271.124176 219.930161,258.523010 216.461853,248.618301 
	C216.073059,247.507996 217.008881,245.304886 218.032700,244.436920 
	C222.664474,240.510208 227.548615,236.881180 232.640839,232.964905 
z"/>
<path fill="#FEC6AA" opacity="1.000000" stroke="none" 
	d="
M248.480820,263.204163 
	C243.504333,253.361328 238.860504,243.411316 234.052368,233.118774 
	C236.332733,231.803131 238.699585,230.377869 241.236618,229.941116 
	C249.056259,228.594849 254.985428,225.081238 257.622467,216.008545 
	C258.812103,218.137466 259.505646,219.320450 260.144501,220.532242 
	C262.534149,225.065033 266.087067,227.989792 271.223846,228.989304 
	C281.142700,230.919342 289.624512,235.490692 296.716370,242.769943 
	C298.933685,245.045837 299.202423,247.091599 297.963470,249.879532 
	C294.246307,258.244171 287.771637,263.405029 279.158295,265.721771 
	C271.343750,267.823639 264.222412,263.334961 261.585938,255.582397 
	C260.980621,253.802414 259.322296,252.380554 258.148590,250.793884 
	C256.802185,252.386322 255.376236,253.919174 254.128250,255.585312 
	C252.290100,258.039337 250.578796,260.588379 248.480820,263.204163 
z"/>
</svg>